<svg xmlns="http://www.w3.org/2000/svg" width="30" height="28" viewBox="0 0 30 28"><g><g opacity=".25"><path d="M3 0h24a3 3 0 0 1 3 3v22a3 3 0 0 1-3 3H3a3 3 0 0 1-3-3V3a3 3 0 0 1 3-3z"/></g><g><path fill="#fff" d="M15.311 22.996l-7.921-8.04a5.525 5.525 0 0 1-1.592-3.902A5.52 5.52 0 0 1 7.39 7.153a5.385 5.385 0 0 1 7.687 0l.234.237.233-.237a5.385 5.385 0 0 1 7.687 0 5.521 5.521 0 0 1 1.592 3.9c0 1.475-.565 2.86-1.592 3.903zM11.233 7.543c-.886 0-1.772.342-2.447 1.027a3.516 3.516 0 0 0-1.014 2.484c0 .938.36 1.821 1.014 2.485l6.525 6.623 6.524-6.623a3.518 3.518 0 0 0 1.014-2.485c0-.939-.36-1.82-1.014-2.484a3.43 3.43 0 0 0-4.895 0l-1.629 1.654-1.63-1.654a3.425 3.425 0 0 0-2.448-1.027z"/></g></g></svg>