<svg xmlns="http://www.w3.org/2000/svg" width="35" height="35" viewBox="0 0 35 35"><g><g><path fill="red" d="M-.001-.007H35v35.002H0zm23.106 17.994l-4.38-4.394a1.73 1.73 0 0 0-2.453 0l-4.38 4.394-4.38-4.394a1.73 1.73 0 0 0-2.453 0 1.744 1.744 0 0 0 0 2.46c.417.42 5.344 5.362 5.606 5.626a1.734 1.734 0 0 0 2.453 0c1.037-1.042 4.38-4.395 4.38-4.395s4.274 4.286 4.394 4.408c.679.664 1.767.66 2.44-.013l5.623-5.642c.66-.68.655-1.77-.017-2.444a1.73 1.73 0 0 0-2.452 0l-4.38 4.394zm6.836-1.936l-.003.002.003-.002zm-8.06 5.63l-.002-.002.002.002zm8.074-5.644zm-8.063 5.655z"/></g></g></svg>